<?xml version="1.0" encoding="UTF-8" standalone="no"?>
<svg
        xmlns="http://www.w3.org/2000/svg"
        xmlns:xlink="http://www.w3.org/1999/xlink"
        version="1.0"
        width="400"
        height="400"
        viewBox="0 0 319.99849 320.00368"
        preserveAspectRatio="xMidYMid meet">
    <defs id="defs3102">
        <linearGradient id="linearGradient3904">
            <stop style="stop-color:#000000;stop-opacity:1;"
                  offset="0"
                  id="stop3906"/>
            <stop style="stop-color:#000000;stop-opacity:0;"
                  offset="1"
                  id="stop3908"/>
        </linearGradient>
        <linearGradient id="linearGradient3896">
            <stop style="stop-color:#000000;stop-opacity:1;"
                  offset="0"
                  id="stop3898"/>
            <stop style="stop-color:#000000;stop-opacity:0;"
                  offset="1"
                  id="stop3900"/>
        </linearGradient>
        <linearGradient id="linearGradient3884">
            <stop style="stop-color:#000000;stop-opacity:1;"
                  offset="0"
                  id="stop3886"/>
            <stop style="stop-color:#000000;stop-opacity:0;"
                  offset="1"
                  id="stop3888"/>
        </linearGradient>
        <linearGradient xlink:href="#linearGradient3884"
                        id="linearGradient3890"
                        x1="850"
                        y1="1670.125"
                        x2="1530"
                        y2="1670.125"
                        gradientUnits="userSpaceOnUse"
                        gradientTransform="translate(2378.5318,476.26091)"/>
        <linearGradient xlink:href="#linearGradient3896"
                        id="linearGradient3902"
                        x1="1587"
                        y1="1667.9569"
                        x2="1982"
                        y2="1667.9569"
                        gradientUnits="userSpaceOnUse"/>
        <linearGradient xlink:href="#linearGradient3904"
                        id="linearGradient3910"
                        x1="2040"
                        y1="1715"
                        x2="2500"
                        y2="1715"
                        gradientUnits="userSpaceOnUse"/>
    </defs>
    <g transform="matrix(0.1,0,0,-0.1,-257.504,407.512)"
       id="g3066"
       style="fill:#000000;stroke:none">
        <path
                d="m 3865,3588 c -48,-46 -117,-103 -154,-127 -62,-41 -300,-161 -320,-161 -12,0 -110,-47 -143,-68 -72,-47 -251,-213 -282,-262 -31,-47 -51,-109 -39,-121 5,-5 47,25 104,77 129,117 181,150 439,282 80,40 152,80 160,87 8,7 38,29 65,47 28,19 68,46 89,61 21,15 47,27 57,27 24,0 24,-27 5,-171 -8,-57 -17,-160 -20,-229 -9,-179 -20,-217 -74,-251 -35,-22 -58,-28 -135,-33 -155,-11 -207,-18 -202,-26 3,-5 27,-16 53,-26 26,-10 67,-31 92,-48 141,-96 316,31 392,284 9,33 12,102 10,255 -1,116 3,263 9,328 10,113 7,157 -10,157 -5,0 -48,-37 -96,-82 z"
                id="path3068"
                style="fill:#cd0103;fill-opacity:1"
                />
        <path
                d="m 5754,3448 c -28,-34 -93,-82 -139,-102 -50,-22 -113,-55 -145,-76 -68,-46 -109,-69 -220,-125 -25,-13 -92,-39 -150,-59 -58,-21 -114,-41 -125,-46 -89,-37 -369,-126 -525,-166 -36,-9 -85,-22 -110,-29 -25,-7 -63,-17 -85,-23 -22,-6 -71,-20 -109,-32 -38,-11 -74,-20 -79,-20 -9,0 -156,-72 -277,-136 -36,-18 -70,-34 -75,-34 -41,0 -134,-156 -150,-250 -9,-54 -1,-49 69,45 88,116 160,164 331,220 39,13 113,42 165,65 52,23 106,46 120,50 14,5 50,18 80,30 30,12 82,28 115,36 33,8 76,19 95,24 19,5 55,13 80,19 146,32 237,60 300,91 19,10 69,30 110,45 87,32 125,46 200,75 76,29 216,70 240,70 33,0 23,-32 -25,-81 -57,-58 -83,-94 -141,-199 -57,-103 -122,-202 -170,-258 -36,-43 -134,-187 -134,-199 0,-20 -129,-154 -224,-232 -61,-51 -115,-101 -150,-141 -83,-91 -182,-187 -217,-211 -20,-13 -77,-52 -127,-86 -84,-58 -144,-90 -232,-123 -19,-7 -40,-17 -47,-23 -7,-5 -27,-16 -45,-26 -18,-10 -50,-27 -72,-40 -25,-14 -69,-26 -125,-32 -47,-6 -132,-19 -189,-30 -145,-27 -216,-25 -358,12 -262,67 -283,77 -435,208 -45,39 -88,71 -95,71 -8,0 -14,-10 -14,-23 0,-35 73,-178 106,-208 70,-63 341,-178 496,-210 113,-24 359,3 533,58 88,28 159,52 210,71 28,11 77,30 110,42 61,24 130,62 200,110 22,15 65,44 95,64 108,71 138,96 195,163 31,37 117,129 190,203 135,137 188,200 274,325 58,85 101,147 140,200 31,42 164,239 196,290 53,84 115,189 115,195 0,4 8,18 19,31 21,27 88,150 202,368 31,59 32,75 3,39 z"
                id="path3070"
                style="fill:#cd0103;fill-opacity:1"
                />
        <path
                d="m 3628,3097 c -33,-34 -64,-57 -77,-57 -37,0 -158,-47 -205,-79 -24,-17 -49,-31 -54,-31 -5,0 -30,-22 -56,-50 -34,-36 -46,-57 -46,-80 0,-16 4,-30 9,-30 5,0 38,32 72,71 71,80 96,93 214,113 79,14 144,43 171,77 16,20 36,86 32,106 -2,13 -16,4 -60,-40 z"
                id="path3072"
                />
        <path
                d="m 2693.0742,2549.1755 c -7.0003,-8 -13.0003,-19.0002 -13.0003,-25.0001 0,-18.0001 27.0002,-40.0003 49.0004,-40.0003 21.0001,0 21.0001,-4 21.0001,-240.0016 0,-236.0014 0,-240.0014 -21.0001,-240.0014 -22.0002,0 -49.0004,-22.0002 -49.0004,-40.0002 0,-32.0001 29.0001,-41.0002 121.0009,-38.0002 75.0003,2 94.0006,6.0001 103.0005,21.0001 14.0002,22.0002 -3,51.0004 -33.0002,55.0004 -20.9999,2.9999 -20.9999,5.9999 -20.9999,243.0015 0,223.0013 0.9999,239.0014 17.9998,239.0014 38.0003,0 54.0005,39.0002 28.0003,66.0004 -20.0002,20.0002 -186.0012,19.0002 -203.0011,-1 z m 197.0012,-25.0001 c 0,-16.0001 -7.0001,-20.0002 -30.0003,-20.0002 l -30.0002,0 0,-260.0017 0,-260.0016 30.0002,0 c 23.0002,0 30.0003,-4 30.0003,-20 0,-19.0002 -7.0001,-20.0001 -95.0007,-20.0001 -88.0006,0 -95.0005,0.9999 -95.0005,20.0001 0,16 6.9999,20 30,20 l 30.0002,0 0,260.0016 0,260.0017 -30.0002,0 c -23.0001,0 -30,4.0001 -30,20.0002 0,19.0002 6.9999,20.0001 95.0005,20.0001 88.0006,0 95.0007,-0.9999 95.0007,-20.0001 z"
                id="path3078"
                />
        <path
                d="m 2920.1498,2486.0287 c 0,-63 2,-70.0002 20.0001,-70.0002 17,0 19.9999,7.0002 19.9999,50.0001 l 0,50 90,0 90.0001,0 0,-264.9999 0,-265.0001 -40.0001,0 c -33,0 -39.9999,-2.9999 -39.9999,-19.9999 0,-19.0002 6.9999,-20.0001 114.9998,-20.0001 108.0002,0 115.0002,0.9999 115.0002,20.0001 0,17 -7,19.9999 -40.0001,19.9999 l -40,0 0,265.0001 0,264.9999 95,0 95,0 0,-50 c 0,-37.9999 4.0001,-50.0001 15,-50.0001 12,0 14.9999,14.0002 14.9999,70.0002 l 0,69.9999 -255,0 -254.9999,0 0,-69.9999 z"
                id="path3080"
                style="fill:#cd0103;fill-opacity:1"
                />
        <path
                d="m 4574,2612 c -17,-9 -54,-29 -83,-45 -33,-18 -124,-100 -264,-238 -222,-221 -296,-282 -387,-320 -56,-23 -84,-38 -153,-79 -38,-22 -57,-23 -137,-4 l -25,6 25,-21 c 39,-34 97,-61 128,-61 15,0 43,11 62,25 19,14 40,25 47,25 24,0 126,58 180,102 29,24 83,68 120,99 90,74 242,235 259,273 7,17 25,45 41,63 29,33 147,131 205,171 38,26 27,29 -18,4 z"
                id="path3082"
                />
        <path
                d="m 3228.5318,2241.2609 c 0,-9 9,-15 25,-15 21,0 36,-16 86,-95 56,-87 64,-95 93,-95 28,0 37,8 81,75 28,41 53,75 56,75 4,0 28,-34 54,-75 42,-68 49,-75 78,-75 30,0 38,8 96,95 51,74 69,95 88,95 14,0 23,6 23,15 0,12 -16,15 -80,15 -63,0 -80,-3 -80,-14 0,-10 13,-16 35,-18 l 36,-3 -50,-68 -49,-68 -56,85 c -75,115 -85,115 -158,0 l -55,-86 -52,71 -51,71 35,0 c 24,0 35,5 35,15 0,12 -17,15 -95,15 -78,0 -95,-3 -95,-15 z"
                id="path3096"
                style="fill:url(#linearGradient3890);fill-opacity:1"
                />
    </g>
</svg>
