<?xml version="1.0" encoding="UTF-8" standalone="no"?>
<svg
        xmlns="http://www.w3.org/2000/svg"
        xmlns:xlink="http://www.w3.org/1999/xlink"
        version="1.0"
        width="800"
        height="480"
        viewBox="0 0 639.99847 384.00368"
        preserveAspectRatio="xMidYMid meet">
    <defs id="defs3102">
        <linearGradient
                id="linearGradient3904">
            <stop style="stop-color:#000000;stop-opacity:1;"
                  offset="0"
                  id="stop3906"/>
            <stop style="stop-color:#000000;stop-opacity:0;"
                  offset="1"
                  id="stop3908"/>
        </linearGradient>
        <linearGradient id="linearGradient3896">
            <stop style="stop-color:#000000;stop-opacity:1;"
                  offset="0"
                  id="stop3898"/>
            <stop style="stop-color:#000000;stop-opacity:0;"
                  offset="1"
                  id="stop3900"/>
        </linearGradient>
        <linearGradient id="linearGradient3884">
            <stop style="stop-color:#000000;stop-opacity:1;"
                  offset="0"
                  id="stop3886"/>
            <stop style="stop-color:#000000;stop-opacity:0;"
                  offset="1"
                  id="stop3888"/>
        </linearGradient>
        <linearGradient xlink:href="#linearGradient3884"
                        id="linearGradient3890"
                        x1="850"
                        y1="1670.125"
                        x2="1530"
                        y2="1670.125"
                        gradientUnits="userSpaceOnUse"/>
        <linearGradient xlink:href="#linearGradient3896"
                        id="linearGradient3902"
                        x1="1587"
                        y1="1667.9569"
                        x2="1982"
                        y2="1667.9569"
                        gradientUnits="userSpaceOnUse"/>
        <linearGradient xlink:href="#linearGradient3904"
                        id="linearGradient3910"
                        x1="2040"
                        y1="1715"
                        x2="2500"
                        y2="1715"
                        gradientUnits="userSpaceOnUse"/>
    </defs>
    <g transform="matrix(0.1,0,0,-0.1,28.999996,440.024)"
       id="g3066"
       style="fill:#000000;stroke:none">
        <path
                d="m 3865,3588 c -48,-46 -117,-103 -154,-127 -62,-41 -300,-161 -320,-161 -12,0 -110,-47 -143,-68 -72,-47 -251,-213 -282,-262 -31,-47 -51,-109 -39,-121 5,-5 47,25 104,77 129,117 181,150 439,282 80,40 152,80 160,87 8,7 38,29 65,47 28,19 68,46 89,61 21,15 47,27 57,27 24,0 24,-27 5,-171 -8,-57 -17,-160 -20,-229 -9,-179 -20,-217 -74,-251 -35,-22 -58,-28 -135,-33 -155,-11 -207,-18 -202,-26 3,-5 27,-16 53,-26 26,-10 67,-31 92,-48 141,-96 316,31 392,284 9,33 12,102 10,255 -1,116 3,263 9,328 10,113 7,157 -10,157 -5,0 -48,-37 -96,-82 z"
                id="path3068"
                style="fill:#cd0103;fill-opacity:1"
                />
        <path
                d="m 5754,3448 c -28,-34 -93,-82 -139,-102 -50,-22 -113,-55 -145,-76 -68,-46 -109,-69 -220,-125 -25,-13 -92,-39 -150,-59 -58,-21 -114,-41 -125,-46 -89,-37 -369,-126 -525,-166 -36,-9 -85,-22 -110,-29 -25,-7 -63,-17 -85,-23 -22,-6 -71,-20 -109,-32 -38,-11 -74,-20 -79,-20 -9,0 -156,-72 -277,-136 -36,-18 -70,-34 -75,-34 -41,0 -134,-156 -150,-250 -9,-54 -1,-49 69,45 88,116 160,164 331,220 39,13 113,42 165,65 52,23 106,46 120,50 14,5 50,18 80,30 30,12 82,28 115,36 33,8 76,19 95,24 19,5 55,13 80,19 146,32 237,60 300,91 19,10 69,30 110,45 87,32 125,46 200,75 76,29 216,70 240,70 33,0 23,-32 -25,-81 -57,-58 -83,-94 -141,-199 -57,-103 -122,-202 -170,-258 -36,-43 -134,-187 -134,-199 0,-20 -129,-154 -224,-232 -61,-51 -115,-101 -150,-141 -83,-91 -182,-187 -217,-211 -20,-13 -77,-52 -127,-86 -84,-58 -144,-90 -232,-123 -19,-7 -40,-17 -47,-23 -7,-5 -27,-16 -45,-26 -18,-10 -50,-27 -72,-40 -25,-14 -69,-26 -125,-32 -47,-6 -132,-19 -189,-30 -145,-27 -216,-25 -358,12 -262,67 -283,77 -435,208 -45,39 -88,71 -95,71 -8,0 -14,-10 -14,-23 0,-35 73,-178 106,-208 70,-63 341,-178 496,-210 113,-24 359,3 533,58 88,28 159,52 210,71 28,11 77,30 110,42 61,24 130,62 200,110 22,15 65,44 95,64 108,71 138,96 195,163 31,37 117,129 190,203 135,137 188,200 274,325 58,85 101,147 140,200 31,42 164,239 196,290 53,84 115,189 115,195 0,4 8,18 19,31 21,27 88,150 202,368 31,59 32,75 3,39 z"
                id="path3070"
                style="fill:#cd0103;fill-opacity:1"
                />
        <path
                d="m 3628,3097 c -33,-34 -64,-57 -77,-57 -37,0 -158,-47 -205,-79 -24,-17 -49,-31 -54,-31 -5,0 -30,-22 -56,-50 -34,-36 -46,-57 -46,-80 0,-16 4,-30 9,-30 5,0 38,32 72,71 71,80 96,93 214,113 79,14 144,43 171,77 16,20 36,86 32,106 -2,13 -16,4 -60,-40 z"
                id="path3072"
                />
        <path
                d="m 1662,2648 c -24,-24 -3,-68 32,-68 13,0 16,-13 16,-70 l 0,-70 -32,20 c -69,42 -142,11 -193,-81 -26,-48 -30,-64 -30,-139 0,-73 4,-93 28,-143 38,-76 89,-112 148,-104 22,3 49,13 58,21 16,15 19,15 31,1 19,-23 119,-17 134,8 14,22 -3,51 -33,55 -21,3 -21,5 -21,281 0,202 -3,280 -12,289 -16,16 -110,16 -126,0 z m 118,-293 0,-295 30,0 c 23,0 30,-4 30,-20 0,-18 -7,-20 -60,-20 l -60,0 0,33 0,32 -21,-33 c -24,-36 -53,-47 -106,-39 -75,13 -114,87 -116,217 -1,142 50,223 139,223 40,0 51,-4 76,-31 l 28,-32 0,105 0,105 -25,0 c -20,0 -25,5 -25,25 0,24 3,25 55,25 l 55,0 0,-295 z"
                id="path3074"
                />
        <path
                d="m 1610,2403 c -57,-20 -79,-102 -62,-225 9,-63 17,-87 33,-100 30,-25 73,-22 106,6 27,23 28,29 32,122 3,98 -8,163 -32,181 -17,14 -59,22 -77,16 z m 62,-25 c 49,-38 50,-250 1,-286 -10,-7 -31,-12 -48,-10 -48,5 -67,52 -63,163 4,107 21,145 66,145 16,0 35,-6 44,-12 z"
                id="path3076"
                />
        <path
                d="m 443,2625 c -7,-8 -13,-19 -13,-25 0,-18 27,-40 49,-40 21,0 21,-4 21,-240 0,-236 0,-240 -21,-240 -22,0 -49,-22 -49,-40 0,-32 29,-41 121,-38 75,2 94,6 103,21 14,22 -3,51 -33,55 -21,3 -21,6 -21,243 0,223 1,239 18,239 38,0 54,39 28,66 -20,20 -186,19 -203,-1 z m 197,-25 c 0,-16 -7,-20 -30,-20 l -30,0 0,-260 0,-260 30,0 c 23,0 30,-4 30,-20 0,-19 -7,-20 -95,-20 -88,0 -95,1 -95,20 0,16 7,20 30,20 l 30,0 0,260 0,260 -30,0 c -23,0 -30,4 -30,20 0,19 7,20 95,20 88,0 95,-1 95,-20 z"
                id="path3078"
                />
        <path
                d="m 1870,2560 c 0,-63 2,-70 20,-70 17,0 20,7 20,50 l 0,50 90,0 90,0 0,-265 0,-265 -40,0 c -33,0 -40,-3 -40,-20 0,-19 7,-20 115,-20 108,0 115,1 115,20 0,17 -7,20 -40,20 l -40,0 0,265 0,265 95,0 95,0 0,-50 c 0,-38 4,-50 15,-50 12,0 15,14 15,70 l 0,70 -255,0 -255,0 0,-70 z"
                id="path3080"
                style="fill:#cd0103;fill-opacity:1"
                />
        <path
                d="m 4574,2612 c -17,-9 -54,-29 -83,-45 -33,-18 -124,-100 -264,-238 -222,-221 -296,-282 -387,-320 -56,-23 -84,-38 -153,-79 -38,-22 -57,-23 -137,-4 l -25,6 25,-21 c 39,-34 97,-61 128,-61 15,0 43,11 62,25 19,14 40,25 47,25 24,0 126,58 180,102 29,24 83,68 120,99 90,74 242,235 259,273 7,17 25,45 41,63 29,33 147,131 205,171 38,26 27,29 -18,4 z"
                id="path3082"
                />
        <path
                d="m 810,2461 c -52,-27 -97,-91 -110,-157 -36,-175 70,-335 205,-310 73,14 149,123 111,161 -29,29 -58,12 -84,-47 -22,-53 -95,-48 -118,8 -19,45 -19,194 0,239 24,57 106,61 127,7 27,-67 48,-85 73,-59 24,23 22,109 -3,131 -49,45 -145,57 -201,27 z m 163,-28 c 24,-12 27,-19 27,-68 0,-41 -4,-55 -14,-55 -8,0 -17,13 -21,29 -15,68 -94,97 -140,50 -38,-39 -51,-104 -38,-204 12,-96 27,-121 79,-131 44,-8 78,14 95,61 8,22 20,35 31,35 23,0 22,-14 -1,-66 -35,-78 -140,-97 -203,-37 -52,49 -70,97 -71,189 0,71 4,89 26,126 31,53 56,77 93,88 35,10 99,2 137,-17 z"
                id="path3084"
                />
        <path
                d="m 1185,2467 c -40,-19 -90,-76 -106,-124 -20,-56 -17,-169 4,-225 34,-87 119,-140 197,-123 40,9 99,60 116,102 24,57 15,60 -14,4 -35,-70 -77,-95 -146,-87 -56,6 -95,37 -128,100 -29,56 -29,184 0,248 42,97 159,123 233,52 30,-29 59,-105 59,-156 l 0,-28 -126,0 -125,0 7,-47 c 14,-93 42,-133 94,-133 38,0 78,28 91,65 8,22 20,35 31,35 10,0 18,5 18,10 0,6 -9,10 -21,10 -21,0 -49,-21 -49,-38 0,-22 -43,-62 -66,-62 -53,0 -84,42 -84,111 l 0,29 114,0 c 135,0 142,4 132,82 -18,136 -130,220 -231,175 z"
                id="path3086"
                />
        <path
                d="m 2557,2456 c -49,-18 -63,-30 -95,-85 -24,-40 -27,-57 -27,-131 0,-75 3,-91 27,-132 47,-79 133,-113 222,-88 50,14 101,61 111,103 6,24 4,27 -19,27 -19,0 -27,-6 -32,-25 -10,-41 -59,-75 -108,-75 -70,0 -107,41 -121,133 l -7,47 154,0 155,0 -8,54 c -13,97 -47,147 -116,172 -48,17 -88,17 -136,0 z m 122,-42 c 28,-20 51,-72 51,-114 l 0,-30 -110,0 c -60,0 -110,4 -110,8 0,34 35,114 57,131 31,25 80,27 112,5 z"
                id="path3088"
                style="fill:#cd0103;fill-opacity:1"
                />
        <path
                d="m 3025,2463 c -79,-18 -85,-22 -85,-69 0,-50 24,-62 40,-20 13,35 49,56 97,56 54,0 98,-38 107,-91 l 6,-37 -87,-4 c -101,-5 -144,-23 -173,-71 -42,-68 -14,-162 60,-200 44,-23 122,-16 162,13 34,25 38,25 38,0 0,-18 7,-20 65,-20 58,0 65,2 65,20 0,16 -7,20 -30,20 l -30,0 0,126 c 0,150 -12,205 -52,239 -44,37 -118,53 -183,38 z m 165,-245 c -1,-109 -39,-168 -108,-168 -50,0 -79,22 -92,71 -14,53 -5,94 27,119 20,16 41,20 99,20 l 74,0 0,-42 z"
                id="path3090"
                style="fill:#cd0103;fill-opacity:1"
                />
        <path
                d="m 1212,2404 c -28,-19 -44,-49 -52,-96 l -7,-38 90,0 90,0 -6,46 c -8,73 -69,120 -115,88 z m 68,-14 c 10,-5 21,-22 24,-37 4,-16 9,-36 12,-45 5,-16 -3,-18 -70,-18 -82,0 -86,3 -66,57 18,48 58,66 100,43 z"
                id="path3092"
                />
        <path
                d="m 2040,1860 c 0,-5 16,-10 35,-10 l 35,0 0,-135 0,-135 -35,0 c -19,0 -35,-4 -35,-10 0,-6 32,-10 75,-10 67,0 75,2 75,19 0,18 1,18 37,0 46,-24 145,-25 197,-4 38,16 76,66 76,100 0,31 -27,64 -68,81 -51,22 -167,22 -209,0 l -33,-17 0,66 0,65 -75,0 c -43,0 -75,-4 -75,-10 z m 312,-110 c 65,-18 89,-87 49,-139 -16,-21 -30,-26 -85,-29 -62,-4 -67,-3 -96,26 -48,49 -34,117 30,139 44,15 56,15 102,3 z"
                id="path3094"
                style="opacity:0.25;fill:url(#linearGradient3910);fill-opacity:1"
                />
        <path
                d="m 850,1765 c 0,-9 9,-15 25,-15 21,0 36,-16 86,-95 56,-87 64,-95 93,-95 28,0 37,8 81,75 28,41 53,75 56,75 4,0 28,-34 54,-75 42,-68 49,-75 78,-75 30,0 38,8 96,95 51,74 69,95 88,95 14,0 23,6 23,15 0,12 -16,15 -80,15 -63,0 -80,-3 -80,-14 0,-10 13,-16 35,-18 l 36,-3 -50,-68 -49,-68 -56,85 c -75,115 -85,115 -158,0 l -55,-86 -52,71 -51,71 35,0 c 24,0 35,5 35,15 0,12 -17,15 -95,15 -78,0 -95,-3 -95,-15 z"
                id="path3096"
                style="fill:url(#linearGradient3890);fill-opacity:1"
                />
        <path
                d="m 1709,1770 c -79,-14 -122,-49 -122,-100 0,-67 85,-110 212,-109 88,0 138,15 159,47 13,21 13,22 -8,22 -12,0 -36,-10 -53,-22 -45,-32 -149,-37 -193,-10 -17,11 -34,29 -37,41 -5,21 -3,21 155,21 l 160,0 -7,28 c -3,15 -13,34 -21,43 -29,33 -162,54 -245,39 z m 160,-39 c 50,-35 39,-41 -83,-41 -64,0 -116,4 -116,8 0,15 36,43 66,52 39,12 103,3 133,-19 z"
                id="path3098"
                style="opacity:0.5;fill:url(#linearGradient3902);fill-opacity:1"
                />
    </g>
</svg>
